<!DOCTYPE svg PUBLIC "-//W3C//DTD SVG 1.1//EN" "http://www.w3.org/Graphics/SVG/1.1/DTD/svg11.dtd">
<!-- Uploaded to: SVG Repo, www.svgrepo.com, Transformed by: SVG Repo Mixer Tools -->
<svg width="800px" height="800px" viewBox="-19.2 -19.2 230.40 230.40" xmlns="http://www.w3.org/2000/svg" data-name="Layer 1" fill="#000000" transform="matrix(1, 0, 0, 1, 0, 0)rotate(0)" stroke="#000000">
<g id="SVGRepo_bgCarrier" stroke-width="0" transform="translate(14.400000000000006,14.400000000000006), scale(0.85)">
<rect x="-19.2" y="-19.2" width="230.40" height="230.40" rx="0" fill="#000000" strokewidth="0"/>
</g>
<g id="SVGRepo_tracerCarrier" stroke-linecap="round" stroke-linejoin="round" stroke="#050505" stroke-width="19.2">
<path d="M0 0h192v192H0z" style="fill:none"/>
<path d="M96 75.56c-27.44-.38-49.62 22-49.33 47.93C47 150 70.59 170.06 96 170c22.28-.05 41.8-15.56 47.68-37a50 50 0 0 0 1.65-13.23V22" style="stroke:#ffffff;stroke-linecap:round;stroke-miterlimit:10;stroke-width:19.2;fill:none"/>
</g>
<g id="SVGRepo_iconCarrier">
<path d="M0 0h192v192H0z" style="fill:none"/>
<path d="M96 75.56c-27.44-.38-49.62 22-49.33 47.93C47 150 70.59 170.06 96 170c22.28-.05 41.8-15.56 47.68-37a50 50 0 0 0 1.65-13.23V22" style="stroke:#ffffff;stroke-linecap:round;stroke-miterlimit:10;stroke-width:19.2;fill:none"/>
</g>
</svg>